<?xml version="1.0" encoding="UTF-8" standalone="no"?>
<!DOCTYPE svg PUBLIC "-//W3C//DTD SVG 1.1//EN" "http://www.w3.org/Graphics/SVG/1.1/DTD/svg11.dtd">
<svg width="100%" height="100%" viewBox="0 0 40 40" version="1.1" xmlns="http://www.w3.org/2000/svg" xmlns:xlink="http://www.w3.org/1999/xlink" xml:space="preserve" xmlns:serif="http://www.serif.com/" style="fill-rule:evenodd;clip-rule:evenodd;stroke-linecap:round;stroke-linejoin:round;stroke-miterlimit:1.5;">
    <path d="M20.632,38.822L20.632,38.818C20.422,38.813 20.212,38.807 20,38.807C9.626,38.807 1.185,30.366 1.185,19.992C1.185,9.618 9.626,1.178 20,1.178C30.374,1.178 38.815,9.618 38.815,19.992L38.815,36.866C38.815,37.946 37.938,38.822 36.858,38.822L20.632,38.822Z" style="fill:white;"/>
    <circle cx="20" cy="19.992" r="13.298" style="fill:rgb(0,166,80);"/>
    <path d="M17.139,13.077L22.075,18.013C22.075,18.013 22.861,18.726 22.861,19.992C22.861,21.259 22.075,21.971 22.075,21.971L17.139,26.907" style="fill:none;stroke:white;stroke-width:2.5px;"/>
</svg>
